<svg xmlns="http://www.w3.org/2000/svg" xmlns:xlink="http://www.w3.org/1999/xlink" xmlns:lucid="lucid" width="1930" height="2467.79"><g transform="translate(0 0)" lucid:page-tab-id="7ezayB~FQlW7"><path d="M126.25 1238a8 8 0 0 1 8-8h144a8 8 0 0 1 8 8v104a8 8 0 0 1-8 8h-144a8 8 0 0 1-8-8z" stroke="#fa7811" stroke-width="2" fill="#fff"/><use xlink:href="#a" transform="matrix(1,0,0,1,138.25,1242) translate(5.950617283950606 41.22222222222222)"/><use xlink:href="#b" transform="matrix(1,0,0,1,138.25,1242) translate(66 41.22222222222222)"/><use xlink:href="#c" transform="matrix(1,0,0,1,138.25,1242) translate(52.24691358024691 62.55555555555556)"/><path d="M343.25 1343.75c-6.63 0-12 5.37-12 12v16c0 6.63 5.37 12 12 12h136c6.63 0 12-5.37 12-12v-16c0-6.63-5.37-12-12-12z" stroke="#000" stroke-opacity="0" stroke-width="2" fill="#77818c"/><use xlink:href="#d" transform="matrix(1,0,0,1,341.25,1347.75) translate(29.58024691358024 19.555555555555557)"/><path d="M343.25 1398.75c-6.63 0-12 5.37-12 12v16c0 6.63 5.37 12 12 12h136c6.63 0 12-5.37 12-12v-16c0-6.63-5.37-12-12-12z" stroke="#000" stroke-opacity="0" stroke-width="2" fill="#77818c"/><use xlink:href="#e" transform="matrix(1,0,0,1,341.25,1402.75) translate(43.11111111111111 19.555555555555557)"/><path d="M343.25 1453.75c-6.63 0-12 5.37-12 12v16c0 6.63 5.37 12 12 12h136c6.63 0 12-5.37 12-12v-16c0-6.63-5.37-12-12-12z" stroke="#000" stroke-opacity="0" stroke-width="2" fill="#77818c"/><use xlink:href="#f" transform="matrix(1,0,0,1,341.25,1457.75) translate(27.654320987654316 19.555555555555557)"/><path d="M343.25 1508.75c-6.63 0-12 5.37-12 12v16c0 6.63 5.37 12 12 12h136c6.63 0 12-5.37 12-12v-16c0-6.63-5.37-12-12-12z" stroke="#000" stroke-opacity="0" stroke-width="2" fill="#77818c"/><use xlink:href="#g" transform="matrix(1,0,0,1,341.25,1512.75) translate(37.95061728395061 19.555555555555557)"/><path d="M343.25 1563.75c-6.63 0-12 5.37-12 12v16c0 6.63 5.37 12 12 12h136c6.63 0 12-5.37 12-12v-16c0-6.63-5.37-12-12-12z" stroke="#000" stroke-opacity="0" stroke-width="2" fill="#77818c"/><use xlink:href="#h" transform="matrix(1,0,0,1,341.25,1567.75) translate(48.96296296296296 19.555555555555557)"/><path d="M138.25 1453.75c-6.63 0-12 5.37-12 12v16c0 6.63 5.37 12 12 12h136c6.63 0 12-5.37 12-12v-16c0-6.63-5.37-12-12-12z" stroke="#000" stroke-opacity="0" stroke-width="2" fill="#77818c"/><use xlink:href="#i" transform="matrix(1,0,0,1,136.25,1457.75) translate(29.01234567901234 19.555555555555557)"/><use xlink:href="#j" transform="matrix(1,0,0,1,136.25,1457.75) translate(82.34567901234567 19.555555555555557)"/><path d="M206.25 1351.45v101.8" stroke="#333" fill="none"/><path d="M206.75 1351.46h-1v-.5h1zM206.75 1453.75h-1v-.5h1z" stroke="#333" stroke-width=".05" fill="#333"/><path d="M286.75 1473.75h10a12 12 0 0 0 12-12v-90.65a6.12 6.12 0 0 1 6.12-6.12" stroke="#333" fill="none"/><path d="M286.76 1474.25h-.5v-1h.5z" stroke="#333" stroke-width=".05" fill="#333"/><path d="M329.63 1364.98l-14.26 4.63v-9.26z" stroke="#333" fill="#333"/><path d="M286.75 1473.75h10a12 12 0 0 0 12-12v-37.12a6.12 6.12 0 0 1 6.12-6.12" stroke="#333" fill="none"/><path d="M286.76 1474.25h-.5v-1h.5z" stroke="#333" stroke-width=".05" fill="#333"/><path d="M329.63 1418.5l-14.26 4.65v-9.27z" stroke="#333" fill="#333"/><path d="M286.75 1473.75h28.12" stroke="#333" fill="none"/><path d="M286.76 1474.25h-.5v-1h.5z" stroke="#333" stroke-width=".05" fill="#333"/><path d="M329.63 1473.75l-14.26 4.64v-9.3z" stroke="#333" fill="#333"/><path d="M286.75 1473.75h10a12 12 0 0 1 12 12v36.05a6.12 6.12 0 0 0 6.12 6.1" stroke="#333" fill="none"/><path d="M286.76 1474.25h-.5v-1h.5z" stroke="#333" stroke-width=".05" fill="#333"/><path d="M329.63 1527.9l-14.26 4.65v-9.27z" stroke="#333" fill="#333"/><path d="M286.75 1473.75h10a12 12 0 0 1 12 12v90.94a6.12 6.12 0 0 0 6.12 6.1" stroke="#333" fill="none"/><path d="M286.76 1474.25h-.5v-1h.5z" stroke="#333" stroke-width=".05" fill="#333"/><path d="M329.63 1582.8l-14.26 4.64v-9.27z" stroke="#333" fill="#333"/><path d="M660 1148a8 8 0 0 1 8-8h144a8 8 0 0 1 8 8v44a8 8 0 0 1-8 8H668a8 8 0 0 1-8-8z" stroke="#6f7681" stroke-width="2" fill="#fff"/><use xlink:href="#k" transform="matrix(1,0,0,1,672,1152) translate(23.160493827160487 20.97222222222222)"/><use xlink:href="#l" transform="matrix(1,0,0,1,672,1152) translate(74.41975308641975 20.97222222222222)"/><path d="M628 1213a8 8 0 0 1 8-8h84a8 8 0 0 1 8 8v21.5a8 8 0 0 1-8 8h-84a8 8 0 0 1-8-8z" stroke="#6f7681" fill="#fff"/><use xlink:href="#m" transform="matrix(1,0,0,1,640,1217) translate(5.506172839506171 14.222222222222223)"/><path d="M751.75 1213a8 8 0 0 1 8-8h84a8 8 0 0 1 8 8v21.5a8 8 0 0 1-8 8h-84a8 8 0 0 1-8-8z" stroke="#6f7681" fill="#fff"/><use xlink:href="#n" transform="matrix(1,0,0,1,763.7500000000001,1217) translate(-5.851851851851848 14.222222222222223)"/><path d="M660 1341.75a8 8 0 0 1 8-8h144a8 8 0 0 1 8 8v44a8 8 0 0 1-8 8H668a8 8 0 0 1-8-8z" stroke="#6f7681" stroke-width="2" fill="#fff"/><use xlink:href="#k" transform="matrix(1,0,0,1,672,1345.75) translate(7.901234567901227 20.97222222222222)"/><use xlink:href="#o" transform="matrix(1,0,0,1,672,1345.75) translate(59.160493827160494 20.97222222222222)"/><path d="M740.5 1316.4h-1v-28.08h1zm0-49.4h-1v-65.55h1z" stroke="#333" stroke-width=".05" fill="#333"/><path d="M740.5 1201.46h-1v-.5h1z" fill="#333"/><path d="M740.52 1201.5h-1.04v-.57h1.04zm-1-.52v.46h.96v-.46z" stroke="#333" stroke-width=".05" fill="#333"/><path d="M740 1331.18l-4.64-14.27h9.28z" fill="#333"/><path d="M740 1332.8l-5.32-16.4h10.64zm-3.95-15.4l3.95 12.16 3.95-12.15z" stroke="#333" stroke-width=".05" fill="#333"/><use xlink:href="#p" transform="matrix(1,0,0,1,699.9259259259259,1266.986490531164) translate(0.005000000000002558 14.222222222222223)"/><path d="M660 1511.75a8 8 0 0 1 8-8h144a8 8 0 0 1 8 8V1632a8 8 0 0 1-8 8H668a8 8 0 0 1-8-8z" stroke="#6f7681" stroke-width="2" fill="#fff"/><use xlink:href="#q" transform="matrix(1,0,0,1,672,1515.75) translate(52.71604938271605 17.75347222222222)"/><use xlink:href="#r" transform="matrix(1,0,0,1,672,1515.75) translate(54.71604938271605 39.08680555555556)"/><use xlink:href="#s" transform="matrix(1,0,0,1,672,1515.75) translate(27.629629629629626 60.42013888888889)"/><use xlink:href="#t" transform="matrix(1,0,0,1,672,1515.75) translate(39.432098765432094 81.75347222222223)"/><use xlink:href="#u" transform="matrix(1,0,0,1,672,1515.75) translate(44.37037037037037 81.75347222222223)"/><use xlink:href="#v" transform="matrix(1,0,0,1,672,1515.75) translate(52.24691358024691 103.08680555555557)"/><path d="M740.5 1486.4h-1v-35.73h1zm0-57.06h-1v-34.14h1z" stroke="#333" stroke-width=".05" fill="#333"/><path d="M740.5 1395.2h-1v-.5h1z" fill="#333"/><path d="M740.52 1395.24h-1.04v-.56h1.04zm-1-.5v.45h.96v-.47z" stroke="#333" stroke-width=".05" fill="#333"/><path d="M740 1501.18l-4.64-14.27h9.28z" fill="#333"/><path d="M740 1502.8l-5.32-16.4h10.64zm-3.95-15.4l3.95 12.16 3.95-12.15z" stroke="#333" stroke-width=".05" fill="#333"/><use xlink:href="#w" transform="matrix(1,0,0,1,694.6172839506173,1429.3384847210536) translate(0.005000000000002558 14.222222222222223)"/><use xlink:href="#x" transform="matrix(1,0,0,1,694.6172839506173,1429.3384847210536) translate(53.23956790123457 14.222222222222223)"/><path d="M491.75 1363.75h150.9" stroke="#333" fill="none"/><path d="M491.76 1364.25h-.5v-1h.5z" stroke="#333" stroke-width=".05" fill="#333"/><path d="M657.43 1363.75l-14.27 4.64v-9.3z" stroke="#333" fill="#333"/><path d="M491.75 1418.75h71.4a12 12 0 0 0 12-12v-31a12 12 0 0 1 12-12h55.5" stroke="#333" fill="none"/><path d="M491.76 1419.25h-.5v-1h.5z" stroke="#333" stroke-width=".05" fill="#333"/><path d="M657.43 1363.75l-14.27 4.64v-9.3z" stroke="#333" fill="#333"/><path d="M491.75 1473.75h71.4a12 12 0 0 0 12-12v-86a12 12 0 0 1 12-12h55.5" stroke="#333" fill="none"/><path d="M491.76 1474.25h-.5v-1h.5z" stroke="#333" stroke-width=".05" fill="#333"/><path d="M657.43 1363.75l-14.27 4.64v-9.3z" stroke="#333" fill="#333"/><path d="M491.75 1528.75h71.4a12 12 0 0 0 12-12v-141a12 12 0 0 1 12-12h55.5" stroke="#333" fill="none"/><path d="M491.76 1529.25h-.5v-1h.5z" stroke="#333" stroke-width=".05" fill="#333"/><path d="M657.43 1363.75l-14.27 4.64v-9.3z" stroke="#333" fill="#333"/><path d="M491.75 1583.75h71.4a12 12 0 0 0 12-12v-196a12 12 0 0 1 12-12h55.5" stroke="#333" fill="none"/><path d="M491.76 1584.25h-.5v-1h.5z" stroke="#333" stroke-width=".05" fill="#333"/><path d="M657.43 1363.75l-14.27 4.64v-9.3z" stroke="#333" fill="#333"/><path d="M980 1148a8 8 0 0 1 8-8h144a8 8 0 0 1 8 8v44a8 8 0 0 1-8 8H988a8 8 0 0 1-8-8z" stroke="#0f9d58" stroke-width="2" fill="#fff"/><use xlink:href="#y" transform="matrix(1,0,0,1,992,1152) translate(37.925925925925924 20.97222222222222)"/><path d="M980 1338.42a8 8 0 0 1 8-8h144a8 8 0 0 1 8 8v50.66a8 8 0 0 1-8 8H988a8 8 0 0 1-8-8z" stroke="#0f9d58" stroke-width="2" fill="#fff"/><use xlink:href="#z" transform="matrix(1,0,0,1,992,1342.4166666666667) translate(6.444444444444443 14.222222222222223)"/><use xlink:href="#A" transform="matrix(1,0,0,1,992,1342.4166666666667) translate(94.09876543209877 14.222222222222223)"/><use xlink:href="#B" transform="matrix(1,0,0,1,992,1342.4166666666667) translate(22.172839506172835 35.55555555555556)"/><use xlink:href="#C" transform="matrix(1,0,0,1,992,1342.4166666666667) translate(60.49382716049382 35.55555555555556)"/><path d="M997 1487.5c-6.63 0-12 5.37-12 12v16c0 6.63 5.37 12 12 12h136c6.63 0 12-5.37 12-12v-16c0-6.63-5.37-12-12-12z" stroke="#000" stroke-opacity="0" stroke-width="2" fill="#77818c"/><use xlink:href="#D" transform="matrix(1,0,0,1,995,1491.5000000000002) translate(21.654320987654323 19.555555555555557)"/><path d="M821.45 1571.88h69.53a12 12 0 0 0 12-12v-42.17a12 12 0 0 1 12-12h53.64" stroke="#333" fill="none"/><path d="M821.46 1572.38h-.5v-1h.5z" stroke="#333" stroke-width=".05" fill="#333"/><path d="M983.38 1505.7l-14.26 4.65v-9.27z" stroke="#333" fill="#333"/><path d="M1060.5 1328.97h-1v-53.1h1zm0-74.43h-1v-53.1h1z" stroke="#333" stroke-width=".05" fill="#333"/><path d="M1060.5 1201.46h-1v-.5h1z" fill="#333"/><path d="M1060.53 1201.5h-1.06v-.57h1.06zm-1-.52v.46h.94v-.46z" stroke="#333" stroke-width=".05" fill="#333"/><path d="M1060.5 1329.47h-1v-.52h1z" fill="#333"/><path d="M1060.53 1329.5h-1.06v-.57h1.06zm-1-.52v.46h.94v-.46z" stroke="#333" stroke-width=".05" fill="#333"/><g><use xlink:href="#E" transform="matrix(1,0,0,1,1032.3950617283951,1254.5416666666667) translate(0.004999999999999005 14.222222222222223)"/></g><path d="M1065 1487v-72.6" stroke="#333" fill="none"/><path d="M1065.5 1487.5h-1v-.5h1z" stroke="#333" stroke-width=".05" fill="#333"/><path d="M1065 1399.65l4.64 14.26h-9.28z" stroke="#333" fill="#333"/><path d="M1201.24 1354.2h-43.92v-1h43.92zm133.1 0h-39.32v-1h39.32z" stroke="#333" stroke-width=".05" fill="#333"/><path d="M1334.84 1354.2h-.52v-1h.52z" stroke="#333" stroke-width=".05" fill="#333"/><path d="M1156.82 1358.34l-14.27-4.63 14.27-4.63z" fill="#333"/><path d="M1157.32 1359.03l-16.4-5.32 16.4-5.32zm-13.15-5.32l12.15 3.95v-7.9z" stroke="#333" stroke-width=".05" fill="#333"/><g><use xlink:href="#F" transform="matrix(1,0,0,1,1201.24235847622,1343.038777985363) translate(0.005000000000002558 14.222222222222223)"/><use xlink:href="#G" transform="matrix(1,0,0,1,1201.24235847622,1343.038777985363) translate(34.57290123456791 14.222222222222223)"/></g><path d="M1424.86 1322.08v61h-84.37v-61zm-86.52-2.08v68.07h88.78V1320zm-9.34 69.15c0 4.3 3.44 7.77 7.73 7.77h91.9c4.28 0 7.72-3.46 7.72-7.77z" stroke="#000" stroke-opacity="0" stroke-width="1.67" fill="#434445"/><defs><path fill="#4c535d" d="M67-125c0 53 21 87 73 88 37 1 54-22 65-47l45 17C233-25 199 4 140 4 58 4 20-42 15-125 8-235 124-281 211-232c18 10 29 29 36 50l-46 12c-8-25-30-41-62-41-52 0-71 34-72 86" id="H"/><path fill="#4c535d" d="M110-194c64 0 96 36 96 99 0 64-35 99-97 99-61 0-95-36-95-99 0-62 34-99 96-99zm-1 164c35 0 45-28 45-65 0-40-10-65-43-65-34 0-45 26-45 65 0 36 10 65 43 65" id="I"/><path fill="#4c535d" d="M135-194c87-1 58 113 63 194h-50c-7-57 23-157-34-157-59 0-34 97-39 157H25l-1-190h47c2 12-1 28 3 38 12-26 28-41 61-42" id="J"/><path fill="#4c535d" d="M88-194c31-1 46 15 58 34l-1-101h50l1 261h-48c-2-10 0-23-3-31C134-8 116 4 84 4 32 4 16-41 15-95c0-56 19-97 73-99zm17 164c33 0 40-30 41-66 1-37-9-64-41-64s-38 30-39 65c0 43 13 65 39 65" id="K"/><path fill="#4c535d" d="M133-34C117-15 103 5 69 4 32 3 11-16 11-54c-1-60 55-63 116-61 1-26-3-47-28-47-18 1-26 9-28 27l-52-2c7-38 36-58 82-57s74 22 75 68l1 82c-1 14 12 18 25 15v27c-30 8-71 5-69-32zm-48 3c29 0 43-24 42-57-32 0-66-3-65 30 0 17 8 27 23 27" id="L"/><g id="a"><use transform="matrix(0.04938271604938272,0,0,0.04938271604938272,0,0)" xlink:href="#H"/><use transform="matrix(0.04938271604938272,0,0,0.04938271604938272,12.790123456790125,0)" xlink:href="#I"/><use transform="matrix(0.04938271604938272,0,0,0.04938271604938272,23.60493827160494,0)" xlink:href="#J"/><use transform="matrix(0.04938271604938272,0,0,0.04938271604938272,34.41975308641975,0)" xlink:href="#K"/><use transform="matrix(0.04938271604938272,0,0,0.04938271604938272,45.23456790123457,0)" xlink:href="#L"/></g><path fill="#4c535d" d="M176-78C186 10 51 31 16-35c-5-9-9-19-11-32l52-8c4 21 12 37 35 38 23 0 32-16 32-40v-130H75v-41h101v170" id="M"/><path fill="#4c535d" d="M85 4C-2 5 27-109 22-190h50c7 57-23 150 33 157 60-5 35-97 40-157h50l1 190h-47c-2-12 1-28-3-38-12 25-28 42-61 42" id="N"/><path fill="#4c535d" d="M135-194c53 0 70 44 70 98 0 56-19 98-73 100-31 1-45-17-59-34 3 33 2 69 2 105H25l-1-265h48c2 10 0 23 3 31 11-24 29-35 60-35zM114-30c33 0 39-31 40-66 0-38-9-64-40-64-56 0-55 130 0 130" id="O"/><path fill="#4c535d" d="M123 10C108 53 80 86 19 72V37c35 8 53-11 59-39L3-190h52l48 148c12-52 28-100 44-148h51" id="P"/><path fill="#4c535d" d="M115-3C79 11 28 4 28-45v-112H4v-33h27l15-45h31v45h36v33H77v99c-1 23 16 31 38 25v30" id="Q"/><path fill="#4c535d" d="M185-48c-13 30-37 53-82 52C43 2 14-33 14-96s30-98 90-98c62 0 83 45 84 108H66c0 31 8 55 39 56 18 0 30-7 34-22zm-45-69c5-46-57-63-70-21-2 6-4 13-4 21h74" id="R"/><path fill="#4c535d" d="M135-150c-39-12-60 13-60 57V0H25l-1-190h47c2 13-1 29 3 40 6-28 27-53 61-41v41" id="S"/><g id="b"><use transform="matrix(0.04938271604938272,0,0,0.04938271604938272,0,0)" xlink:href="#M"/><use transform="matrix(0.04938271604938272,0,0,0.04938271604938272,9.876543209876544,0)" xlink:href="#N"/><use transform="matrix(0.04938271604938272,0,0,0.04938271604938272,20.69135802469136,0)" xlink:href="#O"/><use transform="matrix(0.04938271604938272,0,0,0.04938271604938272,31.506172839506174,0)" xlink:href="#P"/><use transform="matrix(0.04938271604938272,0,0,0.04938271604938272,41.38271604938272,0)" xlink:href="#Q"/><use transform="matrix(0.04938271604938272,0,0,0.04938271604938272,47.25925925925927,0)" xlink:href="#R"/><use transform="matrix(0.04938271604938272,0,0,0.04938271604938272,57.135802469135804,0)" xlink:href="#S"/></g><path fill="#4c535d" d="M24 0v-248h52v208h133V0H24" id="T"/><path fill="#4c535d" d="M135-194c52 0 70 43 70 98 0 56-19 99-73 100-30 1-46-15-58-35L72 0H24l1-261h50v104c11-23 29-37 60-37zM114-30c31 0 40-27 40-66 0-37-7-63-39-63s-41 28-41 65c0 36 8 64 40 64" id="U"/><g id="c"><use transform="matrix(0.04938271604938272,0,0,0.04938271604938272,0,0)" xlink:href="#T"/><use transform="matrix(0.04938271604938272,0,0,0.04938271604938272,10.814814814814815,0)" xlink:href="#L"/><use transform="matrix(0.04938271604938272,0,0,0.04938271604938272,20.69135802469136,0)" xlink:href="#U"/></g><path fill="#fff" d="M59-47c-2 24 18 29 38 22v24C64 9 27 4 27-40v-127H5v-23h24l9-43h21v43h35v23H59v120" id="V"/><path fill="#fff" d="M100-194c63 0 86 42 84 106H49c0 40 14 67 53 68 26 1 43-12 49-29l28 8c-11 28-37 45-77 45C44 4 14-33 15-96c1-61 26-98 85-98zm52 81c6-60-76-77-97-28-3 7-6 17-6 28h103" id="W"/><path fill="#fff" d="M117-194c89-4 53 116 60 194h-32v-121c0-31-8-49-39-48C34-167 62-67 57 0H25l-1-190h30c1 10-1 24 2 32 11-22 29-35 61-36" id="X"/><path fill="#fff" d="M135-143c-3-34-86-38-87 0 15 53 115 12 119 90S17 21 10-45l28-5c4 36 97 45 98 0-10-56-113-15-118-90-4-57 82-63 122-42 12 7 21 19 24 35" id="Y"/><path fill="#fff" d="M100-194c62-1 85 37 85 99 1 63-27 99-86 99S16-35 15-95c0-66 28-99 85-99zM99-20c44 1 53-31 53-75 0-43-8-75-51-75s-53 32-53 75 10 74 51 75" id="Z"/><path fill="#fff" d="M114-163C36-179 61-72 57 0H25l-1-190h30c1 12-1 29 2 39 6-27 23-49 58-41v29" id="aa"/><path fill="#fff" d="M101-234c-31-9-42 10-38 44h38v23H63V0H32v-167H5v-23h27c-7-52 17-82 69-68v24" id="ab"/><path fill="#fff" d="M24 0v-261h32V0H24" id="ac"/><path fill="#fff" d="M206 0h-36l-40-164L89 0H53L-1-190h32L70-26l43-164h34l41 164 42-164h31" id="ad"/><g id="d"><use transform="matrix(0.04938271604938272,0,0,0.04938271604938272,0,0)" xlink:href="#V"/><use transform="matrix(0.04938271604938272,0,0,0.04938271604938272,4.938271604938272,0)" xlink:href="#W"/><use transform="matrix(0.04938271604938272,0,0,0.04938271604938272,14.814814814814817,0)" xlink:href="#X"/><use transform="matrix(0.04938271604938272,0,0,0.04938271604938272,24.69135802469136,0)" xlink:href="#Y"/><use transform="matrix(0.04938271604938272,0,0,0.04938271604938272,33.580246913580254,0)" xlink:href="#Z"/><use transform="matrix(0.04938271604938272,0,0,0.04938271604938272,43.4567901234568,0)" xlink:href="#aa"/><use transform="matrix(0.04938271604938272,0,0,0.04938271604938272,49.33333333333334,0)" xlink:href="#ab"/><use transform="matrix(0.04938271604938272,0,0,0.04938271604938272,54.27160493827161,0)" xlink:href="#ac"/><use transform="matrix(0.04938271604938272,0,0,0.04938271604938272,58.17283950617284,0)" xlink:href="#Z"/><use transform="matrix(0.04938271604938272,0,0,0.04938271604938272,68.0493827160494,0)" xlink:href="#ad"/></g><path fill="#fff" d="M118-107v75H92v-75H18v-26h74v-75h26v75h74v26h-74" id="ae"/><path fill="#fff" d="M143 0L79-87 56-68V0H24v-261h32v163l83-92h37l-77 82L181 0h-38" id="af"/><path fill="#fff" d="M141-36C126-15 110 5 73 4 37 3 15-17 15-53c-1-64 63-63 125-63 3-35-9-54-41-54-24 1-41 7-42 31l-33-3c5-37 33-52 76-52 45 0 72 20 72 64v82c-1 20 7 32 28 27v20c-31 9-61-2-59-35zM48-53c0 20 12 33 32 33 41-3 63-29 60-74-43 2-92-5-92 41" id="ag"/><g id="e"><use transform="matrix(0.04938271604938272,0,0,0.04938271604938272,0,0)" xlink:href="#ae"/><use transform="matrix(0.04938271604938272,0,0,0.04938271604938272,10.370370370370372,0)" xlink:href="#af"/><use transform="matrix(0.04938271604938272,0,0,0.04938271604938272,19.25925925925926,0)" xlink:href="#W"/><use transform="matrix(0.04938271604938272,0,0,0.04938271604938272,29.135802469135804,0)" xlink:href="#aa"/><use transform="matrix(0.04938271604938272,0,0,0.04938271604938272,35.01234567901235,0)" xlink:href="#ag"/><use transform="matrix(0.04938271604938272,0,0,0.04938271604938272,44.88888888888889,0)" xlink:href="#Y"/></g><path fill="#fff" d="M96-169c-40 0-48 33-48 73s9 75 48 75c24 0 41-14 43-38l32 2c-6 37-31 61-74 61-59 0-76-41-82-99-10-93 101-131 147-64 4 7 5 14 7 22l-32 3c-4-21-16-35-41-35" id="ah"/><path fill="#fff" d="M24-231v-30h32v30H24zM24 0v-190h32V0H24" id="ai"/><path fill="#fff" d="M16-82v-28h88v28H16" id="aj"/><g id="f"><use transform="matrix(0.04938271604938272,0,0,0.04938271604938272,0,0)" xlink:href="#Y"/><use transform="matrix(0.04938271604938272,0,0,0.04938271604938272,8.88888888888889,0)" xlink:href="#ah"/><use transform="matrix(0.04938271604938272,0,0,0.04938271604938272,17.77777777777778,0)" xlink:href="#ai"/><use transform="matrix(0.04938271604938272,0,0,0.04938271604938272,21.679012345679013,0)" xlink:href="#af"/><use transform="matrix(0.04938271604938272,0,0,0.04938271604938272,30.567901234567906,0)" xlink:href="#ai"/><use transform="matrix(0.04938271604938272,0,0,0.04938271604938272,34.46913580246914,0)" xlink:href="#V"/><use transform="matrix(0.04938271604938272,0,0,0.04938271604938272,39.40740740740741,0)" xlink:href="#aj"/><use transform="matrix(0.04938271604938272,0,0,0.04938271604938272,45.283950617283956,0)" xlink:href="#ac"/><use transform="matrix(0.04938271604938272,0,0,0.04938271604938272,49.18518518518519,0)" xlink:href="#W"/><use transform="matrix(0.04938271604938272,0,0,0.04938271604938272,59.061728395061735,0)" xlink:href="#ag"/><use transform="matrix(0.04938271604938272,0,0,0.04938271604938272,68.93827160493828,0)" xlink:href="#aa"/><use transform="matrix(0.04938271604938272,0,0,0.04938271604938272,74.81481481481482,0)" xlink:href="#X"/></g><path fill="#fff" d="M30-248c87 1 191-15 191 75 0 78-77 80-158 76V0H30v-248zm33 125c57 0 124 11 124-50 0-59-68-47-124-48v98" id="ak"/><path fill="#fff" d="M179-190L93 31C79 59 56 82 12 73V49c39 6 53-20 64-50L1-190h34L92-34l54-156h33" id="al"/><path fill="#fff" d="M127-220V0H93v-220H8v-28h204v28h-85" id="am"/><path fill="#fff" d="M106-169C34-169 62-67 57 0H25v-261h32l-1 103c12-21 28-36 61-36 89 0 53 116 60 194h-32v-121c2-32-8-49-39-48" id="an"/><g id="g"><use transform="matrix(0.04938271604938272,0,0,0.04938271604938272,0,0)" xlink:href="#ak"/><use transform="matrix(0.04938271604938272,0,0,0.04938271604938272,11.851851851851853,0)" xlink:href="#al"/><use transform="matrix(0.04938271604938272,0,0,0.04938271604938272,20.74074074074074,0)" xlink:href="#am"/><use transform="matrix(0.04938271604938272,0,0,0.04938271604938272,29.58024691358025,0)" xlink:href="#Z"/><use transform="matrix(0.04938271604938272,0,0,0.04938271604938272,39.45679012345679,0)" xlink:href="#aa"/><use transform="matrix(0.04938271604938272,0,0,0.04938271604938272,45.333333333333336,0)" xlink:href="#ah"/><use transform="matrix(0.04938271604938272,0,0,0.04938271604938272,54.22222222222223,0)" xlink:href="#an"/></g><path fill="#fff" d="M212-179c-10-28-35-45-73-45-59 0-87 40-87 99 0 60 29 101 89 101 43 0 62-24 78-52l27 14C228-24 195 4 139 4 59 4 22-46 18-125c-6-104 99-153 187-111 19 9 31 26 39 46" id="ao"/><g id="h"><use transform="matrix(0.04938271604938272,0,0,0.04938271604938272,0,0)" xlink:href="#ao"/><use transform="matrix(0.04938271604938272,0,0,0.04938271604938272,12.790123456790125,0)" xlink:href="#ag"/><use transform="matrix(0.04938271604938272,0,0,0.04938271604938272,22.66666666666667,0)" xlink:href="#ab"/><use transform="matrix(0.04938271604938272,0,0,0.04938271604938272,27.259259259259263,0)" xlink:href="#ab"/><use transform="matrix(0.04938271604938272,0,0,0.04938271604938272,32.19753086419753,0)" xlink:href="#W"/></g><path fill="#fff" d="M85-194c31 0 48 13 60 33l-1-100h32l1 261h-30c-2-10 0-23-3-31C134-8 116 4 85 4 32 4 16-35 15-94c0-66 23-100 70-100zm9 24c-40 0-46 34-46 75 0 40 6 74 45 74 42 0 51-32 51-76 0-42-9-74-50-73" id="ap"/><g id="i"><use transform="matrix(0.04938271604938272,0,0,0.04938271604938272,0,0)" xlink:href="#ah"/><use transform="matrix(0.04938271604938272,0,0,0.04938271604938272,8.88888888888889,0)" xlink:href="#Z"/><use transform="matrix(0.04938271604938272,0,0,0.04938271604938272,18.765432098765434,0)" xlink:href="#X"/><use transform="matrix(0.04938271604938272,0,0,0.04938271604938272,28.641975308641978,0)" xlink:href="#ap"/><use transform="matrix(0.04938271604938272,0,0,0.04938271604938272,38.51851851851852,0)" xlink:href="#ag"/></g><path fill="#fff" d="M108 0H70L1-190h34L89-25l56-165h34" id="aq"/><g id="j"><use transform="matrix(0.04938271604938272,0,0,0.04938271604938272,0,0)" xlink:href="#W"/><use transform="matrix(0.04938271604938272,0,0,0.04938271604938272,9.876543209876544,0)" xlink:href="#X"/><use transform="matrix(0.04938271604938272,0,0,0.04938271604938272,19.75308641975309,0)" xlink:href="#aq"/></g><path fill="#4c535d" d="M190-63c-7 42-38 67-86 67-59 0-84-38-90-98-12-110 154-137 174-36l-49 2c-2-19-15-32-35-32-30 0-35 28-38 64-6 74 65 87 74 30" id="ar"/><path fill="#4c535d" d="M25 0v-261h50V0H25" id="as"/><g id="k"><use transform="matrix(0.04938271604938272,0,0,0.04938271604938272,0,0)" xlink:href="#T"/><use transform="matrix(0.04938271604938272,0,0,0.04938271604938272,10.814814814814815,0)" xlink:href="#I"/><use transform="matrix(0.04938271604938272,0,0,0.04938271604938272,21.62962962962963,0)" xlink:href="#ar"/><use transform="matrix(0.04938271604938272,0,0,0.04938271604938272,31.506172839506174,0)" xlink:href="#L"/><use transform="matrix(0.04938271604938272,0,0,0.04938271604938272,41.38271604938272,0)" xlink:href="#as"/></g><path fill="#4c535d" d="M24-248c120-7 223 5 221 122C244-46 201 0 124 0H24v-248zM76-40c74 7 117-18 117-86 0-67-45-88-117-82v168" id="at"/><g id="l"><use transform="matrix(0.04938271604938272,0,0,0.04938271604938272,0,0)" xlink:href="#at"/><use transform="matrix(0.04938271604938272,0,0,0.04938271604938272,12.790123456790125,0)" xlink:href="#L"/><use transform="matrix(0.04938271604938272,0,0,0.04938271604938272,22.66666666666667,0)" xlink:href="#Q"/><use transform="matrix(0.04938271604938272,0,0,0.04938271604938272,28.54320987654322,0)" xlink:href="#L"/></g><path fill="#4c535d" d="M25-224v-37h50v37H25zM25 0v-190h50V0H25" id="au"/><path fill="#4c535d" d="M195-6C206 82 75 100 31 46c-4-6-6-13-8-21l49-6c3 16 16 24 34 25 40 0 42-37 40-79-11 22-30 35-61 35-53 0-70-43-70-97 0-56 18-96 73-97 30 0 46 14 59 34l2-30h47zm-90-29c32 0 41-27 41-63 0-35-9-62-40-62-32 0-39 29-40 63 0 36 9 62 39 62" id="av"/><g id="m"><use transform="matrix(0.04938271604938272,0,0,0.04938271604938272,0,0)" xlink:href="#Q"/><use transform="matrix(0.04938271604938272,0,0,0.04938271604938272,5.8765432098765435,0)" xlink:href="#S"/><use transform="matrix(0.04938271604938272,0,0,0.04938271604938272,12.790123456790125,0)" xlink:href="#L"/><use transform="matrix(0.04938271604938272,0,0,0.04938271604938272,22.666666666666668,0)" xlink:href="#au"/><use transform="matrix(0.04938271604938272,0,0,0.04938271604938272,27.60493827160494,0)" xlink:href="#J"/><use transform="matrix(0.04938271604938272,0,0,0.04938271604938272,38.41975308641975,0)" xlink:href="#au"/><use transform="matrix(0.04938271604938272,0,0,0.04938271604938272,43.358024691358025,0)" xlink:href="#J"/><use transform="matrix(0.04938271604938272,0,0,0.04938271604938272,54.17283950617284,0)" xlink:href="#av"/></g><path fill="#4c535d" d="M128 0H69L1-190h53L99-40l48-150h52" id="aw"/><g id="n"><use transform="matrix(0.04938271604938272,0,0,0.04938271604938272,0,0)" xlink:href="#R"/><use transform="matrix(0.04938271604938272,0,0,0.04938271604938272,9.876543209876544,0)" xlink:href="#aw"/><use transform="matrix(0.04938271604938272,0,0,0.04938271604938272,19.75308641975309,0)" xlink:href="#L"/><use transform="matrix(0.04938271604938272,0,0,0.04938271604938272,29.629629629629633,0)" xlink:href="#as"/><use transform="matrix(0.04938271604938272,0,0,0.04938271604938272,34.567901234567906,0)" xlink:href="#N"/><use transform="matrix(0.04938271604938272,0,0,0.04938271604938272,45.38271604938272,0)" xlink:href="#L"/><use transform="matrix(0.04938271604938272,0,0,0.04938271604938272,55.25925925925927,0)" xlink:href="#Q"/><use transform="matrix(0.04938271604938272,0,0,0.04938271604938272,61.13580246913581,0)" xlink:href="#au"/><use transform="matrix(0.04938271604938272,0,0,0.04938271604938272,66.07407407407408,0)" xlink:href="#I"/><use transform="matrix(0.04938271604938272,0,0,0.04938271604938272,76.88888888888889,0)" xlink:href="#J"/></g><path fill="#4c535d" d="M136-208V0H84v-208H4v-40h212v40h-80" id="ax"/><g id="o"><use transform="matrix(0.04938271604938272,0,0,0.04938271604938272,0,0)" xlink:href="#ax"/><use transform="matrix(0.04938271604938272,0,0,0.04938271604938272,9.82716049382716,0)" xlink:href="#S"/><use transform="matrix(0.04938271604938272,0,0,0.04938271604938272,16.74074074074074,0)" xlink:href="#L"/><use transform="matrix(0.04938271604938272,0,0,0.04938271604938272,26.617283950617285,0)" xlink:href="#au"/><use transform="matrix(0.04938271604938272,0,0,0.04938271604938272,31.555555555555557,0)" xlink:href="#J"/><use transform="matrix(0.04938271604938272,0,0,0.04938271604938272,42.370370370370374,0)" xlink:href="#au"/><use transform="matrix(0.04938271604938272,0,0,0.04938271604938272,47.308641975308646,0)" xlink:href="#J"/><use transform="matrix(0.04938271604938272,0,0,0.04938271604938272,58.12345679012346,0)" xlink:href="#av"/></g><path fill="#333" d="M127-220V0H93v-220H8v-28h204v28h-85" id="ay"/><path fill="#333" d="M114-163C36-179 61-72 57 0H25l-1-190h30c1 12-1 29 2 39 6-27 23-49 58-41v29" id="az"/><path fill="#333" d="M141-36C126-15 110 5 73 4 37 3 15-17 15-53c-1-64 63-63 125-63 3-35-9-54-41-54-24 1-41 7-42 31l-33-3c5-37 33-52 76-52 45 0 72 20 72 64v82c-1 20 7 32 28 27v20c-31 9-61-2-59-35zM48-53c0 20 12 33 32 33 41-3 63-29 60-74-43 2-92-5-92 41" id="aA"/><path fill="#333" d="M117-194c89-4 53 116 60 194h-32v-121c0-31-8-49-39-48C34-167 62-67 57 0H25l-1-190h30c1 10-1 24 2 32 11-22 29-35 61-36" id="aB"/><path fill="#333" d="M135-143c-3-34-86-38-87 0 15 53 115 12 119 90S17 21 10-45l28-5c4 36 97 45 98 0-10-56-113-15-118-90-4-57 82-63 122-42 12 7 21 19 24 35" id="aC"/><path fill="#333" d="M101-234c-31-9-42 10-38 44h38v23H63V0H32v-167H5v-23h27c-7-52 17-82 69-68v24" id="aD"/><path fill="#333" d="M100-194c62-1 85 37 85 99 1 63-27 99-86 99S16-35 15-95c0-66 28-99 85-99zM99-20c44 1 53-31 53-75 0-43-8-75-51-75s-53 32-53 75 10 74 51 75" id="aE"/><path fill="#333" d="M210-169c-67 3-38 105-44 169h-31v-121c0-29-5-50-35-48C34-165 62-65 56 0H25l-1-190h30c1 10-1 24 2 32 10-44 99-50 107 0 11-21 27-35 58-36 85-2 47 119 55 194h-31v-121c0-29-5-49-35-48" id="aF"/><g id="p"><use transform="matrix(0.04938271604938272,0,0,0.04938271604938272,0,0)" xlink:href="#ay"/><use transform="matrix(0.04938271604938272,0,0,0.04938271604938272,10.17283950617284,0)" xlink:href="#az"/><use transform="matrix(0.04938271604938272,0,0,0.04938271604938272,16.049382716049383,0)" xlink:href="#aA"/><use transform="matrix(0.04938271604938272,0,0,0.04938271604938272,25.925925925925927,0)" xlink:href="#aB"/><use transform="matrix(0.04938271604938272,0,0,0.04938271604938272,35.80246913580247,0)" xlink:href="#aC"/><use transform="matrix(0.04938271604938272,0,0,0.04938271604938272,44.691358024691354,0)" xlink:href="#aD"/><use transform="matrix(0.04938271604938272,0,0,0.04938271604938272,49.629629629629626,0)" xlink:href="#aE"/><use transform="matrix(0.04938271604938272,0,0,0.04938271604938272,59.50617283950616,0)" xlink:href="#az"/><use transform="matrix(0.04938271604938272,0,0,0.04938271604938272,65.38271604938271,0)" xlink:href="#aF"/></g><path fill="#4c535d" d="M24 0v-54h51V0H24" id="aG"/><path fill="#4c535d" d="M147 0L96-86 75-71V0H25v-261h50v150l67-79h53l-66 74L201 0h-54" id="aH"/><g id="q"><use transform="matrix(0.04938271604938272,0,0,0.04938271604938272,0,0)" xlink:href="#aG"/><use transform="matrix(0.04938271604938272,0,0,0.04938271604938272,4.938271604938272,0)" xlink:href="#O"/><use transform="matrix(0.04938271604938272,0,0,0.04938271604938272,15.753086419753087,0)" xlink:href="#aH"/><use transform="matrix(0.04938271604938272,0,0,0.04938271604938272,25.629629629629633,0)" xlink:href="#as"/></g><g id="r"><use transform="matrix(0.04938271604938272,0,0,0.04938271604938272,0,0)" xlink:href="#aG"/><use transform="matrix(0.04938271604938272,0,0,0.04938271604938272,4.938271604938272,0)" xlink:href="#O"/><use transform="matrix(0.04938271604938272,0,0,0.04938271604938272,15.753086419753087,0)" xlink:href="#U"/></g><path fill="#4c535d" d="M114-157C55-157 80-60 75 0H25v-261h50l-1 109c12-26 28-41 61-42 86-1 58 113 63 194h-50c-7-57 23-157-34-157" id="aI"/><path fill="#4c535d" d="M121-226c-27-7-43 5-38 36h38v33H83V0H34v-157H6v-33h28c-9-59 32-81 87-68v32" id="aJ"/><g id="s"><use transform="matrix(0.04938271604938272,0,0,0.04938271604938272,0,0)" xlink:href="#aG"/><use transform="matrix(0.04938271604938272,0,0,0.04938271604938272,4.938271604938272,0)" xlink:href="#av"/><use transform="matrix(0.04938271604938272,0,0,0.04938271604938272,15.753086419753087,0)" xlink:href="#S"/><use transform="matrix(0.04938271604938272,0,0,0.04938271604938272,22.666666666666668,0)" xlink:href="#L"/><use transform="matrix(0.04938271604938272,0,0,0.04938271604938272,32.543209876543216,0)" xlink:href="#O"/><use transform="matrix(0.04938271604938272,0,0,0.04938271604938272,43.35802469135803,0)" xlink:href="#aI"/><use transform="matrix(0.04938271604938272,0,0,0.04938271604938272,54.17283950617284,0)" xlink:href="#K"/><use transform="matrix(0.04938271604938272,0,0,0.04938271604938272,64.98765432098766,0)" xlink:href="#R"/><use transform="matrix(0.04938271604938272,0,0,0.04938271604938272,74.8641975308642,0)" xlink:href="#aJ"/></g><path fill="#4c535d" d="M25-224v-37h50v37H25zM75 22c2 45-34 59-81 51V38c22 5 31-5 31-27v-201h50V22" id="aK"/><g id="u"><use transform="matrix(0.04938271604938272,0,0,0.04938271604938272,0,0)" xlink:href="#aG"/><use transform="matrix(0.04938271604938272,0,0,0.04938271604938272,4.938271604938272,0)" xlink:href="#aK"/><use transform="matrix(0.04938271604938272,0,0,0.04938271604938272,9.876543209876544,0)" xlink:href="#I"/><use transform="matrix(0.04938271604938272,0,0,0.04938271604938272,20.69135802469136,0)" xlink:href="#U"/><use transform="matrix(0.04938271604938272,0,0,0.04938271604938272,31.506172839506174,0)" xlink:href="#as"/><use transform="matrix(0.04938271604938272,0,0,0.04938271604938272,36.44444444444445,0)" xlink:href="#au"/><use transform="matrix(0.04938271604938272,0,0,0.04938271604938272,41.38271604938272,0)" xlink:href="#U"/></g><path fill="#4c535d" d="M137-138c1-29-70-34-71-4 15 46 118 7 119 86 1 83-164 76-172 9l43-7c4 19 20 25 44 25 33 8 57-30 24-41C81-84 22-81 20-136c-2-80 154-74 161-7" id="aL"/><g id="v"><use transform="matrix(0.04938271604938272,0,0,0.04938271604938272,0,0)" xlink:href="#aG"/><use transform="matrix(0.04938271604938272,0,0,0.04938271604938272,4.938271604938272,0)" xlink:href="#U"/><use transform="matrix(0.04938271604938272,0,0,0.04938271604938272,15.753086419753087,0)" xlink:href="#aL"/><use transform="matrix(0.04938271604938272,0,0,0.04938271604938272,25.629629629629633,0)" xlink:href="#Q"/></g><path fill="#333" d="M85-194c31 0 48 13 60 33l-1-100h32l1 261h-30c-2-10 0-23-3-31C134-8 116 4 85 4 32 4 16-35 15-94c0-66 23-100 70-100zm9 24c-40 0-46 34-46 75 0 40 6 74 45 74 42 0 51-32 51-76 0-42-9-74-50-73" id="aM"/><path fill="#333" d="M100-194c63 0 86 42 84 106H49c0 40 14 67 53 68 26 1 43-12 49-29l28 8c-11 28-37 45-77 45C44 4 14-33 15-96c1-61 26-98 85-98zm52 81c6-60-76-77-97-28-3 7-6 17-6 28h103" id="aN"/><path fill="#333" d="M24 0v-261h32V0H24" id="aO"/><g id="w"><use transform="matrix(0.04938271604938272,0,0,0.04938271604938272,0,0)" xlink:href="#aF"/><use transform="matrix(0.04938271604938272,0,0,0.04938271604938272,14.765432098765434,0)" xlink:href="#aE"/><use transform="matrix(0.04938271604938272,0,0,0.04938271604938272,24.641975308641978,0)" xlink:href="#aM"/><use transform="matrix(0.04938271604938272,0,0,0.04938271604938272,34.51851851851852,0)" xlink:href="#aN"/><use transform="matrix(0.04938271604938272,0,0,0.04938271604938272,44.39506172839506,0)" xlink:href="#aO"/></g><path fill="#333" d="M108 0H70L1-190h34L89-25l56-165h34" id="aP"/><g id="x"><use transform="matrix(0.04938271604938272,0,0,0.04938271604938272,0,0)" xlink:href="#aC"/><use transform="matrix(0.04938271604938272,0,0,0.04938271604938272,8.88888888888889,0)" xlink:href="#aA"/><use transform="matrix(0.04938271604938272,0,0,0.04938271604938272,18.765432098765434,0)" xlink:href="#aP"/><use transform="matrix(0.04938271604938272,0,0,0.04938271604938272,27.654320987654323,0)" xlink:href="#aN"/></g><g id="y"><use transform="matrix(0.04938271604938272,0,0,0.04938271604938272,0,0)" xlink:href="#at"/><use transform="matrix(0.04938271604938272,0,0,0.04938271604938272,12.790123456790125,0)" xlink:href="#I"/><use transform="matrix(0.04938271604938272,0,0,0.04938271604938272,23.60493827160494,0)" xlink:href="#ar"/><use transform="matrix(0.04938271604938272,0,0,0.04938271604938272,33.48148148148148,0)" xlink:href="#aH"/><use transform="matrix(0.04938271604938272,0,0,0.04938271604938272,43.358024691358025,0)" xlink:href="#R"/><use transform="matrix(0.04938271604938272,0,0,0.04938271604938272,53.23456790123457,0)" xlink:href="#S"/></g><g id="z"><use transform="matrix(0.04938271604938272,0,0,0.04938271604938272,0,0)" xlink:href="#H"/><use transform="matrix(0.04938271604938272,0,0,0.04938271604938272,12.790123456790125,0)" xlink:href="#I"/><use transform="matrix(0.04938271604938272,0,0,0.04938271604938272,23.60493827160494,0)" xlink:href="#J"/><use transform="matrix(0.04938271604938272,0,0,0.04938271604938272,34.41975308641975,0)" xlink:href="#Q"/><use transform="matrix(0.04938271604938272,0,0,0.04938271604938272,40.2962962962963,0)" xlink:href="#L"/><use transform="matrix(0.04938271604938272,0,0,0.04938271604938272,50.17283950617284,0)" xlink:href="#au"/><use transform="matrix(0.04938271604938272,0,0,0.04938271604938272,55.111111111111114,0)" xlink:href="#J"/><use transform="matrix(0.04938271604938272,0,0,0.04938271604938272,65.92592592592592,0)" xlink:href="#R"/><use transform="matrix(0.04938271604938272,0,0,0.04938271604938272,75.80246913580247,0)" xlink:href="#S"/></g><path fill="#4c535d" d="M231 0h-52l-39-155L100 0H48L-1-190h46L77-45c9-52 24-97 36-145h53l37 145 32-145h46" id="aQ"/><g id="A"><use transform="matrix(0.04938271604938272,0,0,0.04938271604938272,0,0)" xlink:href="#aQ"/><use transform="matrix(0.04938271604938272,0,0,0.04938271604938272,13.827160493827162,0)" xlink:href="#au"/><use transform="matrix(0.04938271604938272,0,0,0.04938271604938272,18.765432098765434,0)" xlink:href="#Q"/><use transform="matrix(0.04938271604938272,0,0,0.04938271604938272,24.641975308641978,0)" xlink:href="#aI"/></g><g id="B"><use transform="matrix(0.04938271604938272,0,0,0.04938271604938272,0,0)" xlink:href="#aI"/><use transform="matrix(0.04938271604938272,0,0,0.04938271604938272,10.814814814814815,0)" xlink:href="#Q"/><use transform="matrix(0.04938271604938272,0,0,0.04938271604938272,16.691358024691358,0)" xlink:href="#Q"/><use transform="matrix(0.04938271604938272,0,0,0.04938271604938272,22.567901234567902,0)" xlink:href="#O"/></g><g id="C"><use transform="matrix(0.04938271604938272,0,0,0.04938271604938272,0,0)" xlink:href="#aL"/><use transform="matrix(0.04938271604938272,0,0,0.04938271604938272,9.876543209876544,0)" xlink:href="#R"/><use transform="matrix(0.04938271604938272,0,0,0.04938271604938272,19.75308641975309,0)" xlink:href="#S"/><use transform="matrix(0.04938271604938272,0,0,0.04938271604938272,26.666666666666668,0)" xlink:href="#aw"/><use transform="matrix(0.04938271604938272,0,0,0.04938271604938272,36.543209876543216,0)" xlink:href="#R"/><use transform="matrix(0.04938271604938272,0,0,0.04938271604938272,46.41975308641976,0)" xlink:href="#S"/></g><path fill="#fff" d="M33 0v-38h34V0H33" id="aR"/><path fill="#fff" d="M115-194c55 1 70 41 70 98S169 2 115 4C84 4 66-9 55-30l1 105H24l-1-265h31l2 30c10-21 28-34 59-34zm-8 174c40 0 45-34 45-75s-6-73-45-74c-42 0-51 32-51 76 0 43 10 73 51 73" id="aS"/><g id="D"><use transform="matrix(0.04938271604938272,0,0,0.04938271604938272,0,0)" xlink:href="#ai"/><use transform="matrix(0.04938271604938272,0,0,0.04938271604938272,3.901234567901235,0)" xlink:href="#X"/><use transform="matrix(0.04938271604938272,0,0,0.04938271604938272,13.777777777777779,0)" xlink:href="#ab"/><use transform="matrix(0.04938271604938272,0,0,0.04938271604938272,18.71604938271605,0)" xlink:href="#W"/><use transform="matrix(0.04938271604938272,0,0,0.04938271604938272,28.592592592592595,0)" xlink:href="#aa"/><use transform="matrix(0.04938271604938272,0,0,0.04938271604938272,34.46913580246914,0)" xlink:href="#W"/><use transform="matrix(0.04938271604938272,0,0,0.04938271604938272,44.345679012345684,0)" xlink:href="#X"/><use transform="matrix(0.04938271604938272,0,0,0.04938271604938272,54.22222222222223,0)" xlink:href="#ah"/><use transform="matrix(0.04938271604938272,0,0,0.04938271604938272,63.111111111111114,0)" xlink:href="#W"/><use transform="matrix(0.04938271604938272,0,0,0.04938271604938272,72.98765432098766,0)" xlink:href="#aR"/><use transform="matrix(0.04938271604938272,0,0,0.04938271604938272,77.92592592592592,0)" xlink:href="#aS"/><use transform="matrix(0.04938271604938272,0,0,0.04938271604938272,87.80246913580247,0)" xlink:href="#al"/></g><path fill="#333" d="M30-248c118-7 216 8 213 122C240-48 200 0 122 0H30v-248zM63-27c89 8 146-16 146-99s-60-101-146-95v194" id="aT"/><path fill="#333" d="M115-194c55 1 70 41 70 98S169 2 115 4C84 4 66-9 55-30l1 105H24l-1-265h31l2 30c10-21 28-34 59-34zm-8 174c40 0 45-34 45-75s-6-73-45-74c-42 0-51 32-51 76 0 43 10 73 51 73" id="aU"/><path fill="#333" d="M179-190L93 31C79 59 56 82 12 73V49c39 6 53-20 64-50L1-190h34L92-34l54-156h33" id="aV"/><g id="E"><use transform="matrix(0.04938271604938272,0,0,0.04938271604938272,0,0)" xlink:href="#aT"/><use transform="matrix(0.04938271604938272,0,0,0.04938271604938272,12.790123456790125,0)" xlink:href="#aN"/><use transform="matrix(0.04938271604938272,0,0,0.04938271604938272,22.66666666666667,0)" xlink:href="#aU"/><use transform="matrix(0.04938271604938272,0,0,0.04938271604938272,32.543209876543216,0)" xlink:href="#aO"/><use transform="matrix(0.04938271604938272,0,0,0.04938271604938272,36.44444444444445,0)" xlink:href="#aE"/><use transform="matrix(0.04938271604938272,0,0,0.04938271604938272,46.320987654320994,0)" xlink:href="#aV"/></g><path fill="#333" d="M106-169C34-169 62-67 57 0H25v-261h32l-1 103c12-21 28-36 61-36 89 0 53 116 60 194h-32v-121c2-32-8-49-39-48" id="aW"/><path fill="#333" d="M59-47c-2 24 18 29 38 22v24C64 9 27 4 27-40v-127H5v-23h24l9-43h21v43h35v23H59v120" id="aX"/><g id="F"><use transform="matrix(0.04938271604938272,0,0,0.04938271604938272,0,0)" xlink:href="#aW"/><use transform="matrix(0.04938271604938272,0,0,0.04938271604938272,9.876543209876544,0)" xlink:href="#aX"/><use transform="matrix(0.04938271604938272,0,0,0.04938271604938272,14.814814814814817,0)" xlink:href="#aX"/><use transform="matrix(0.04938271604938272,0,0,0.04938271604938272,19.75308641975309,0)" xlink:href="#aU"/></g><path fill="#333" d="M145-31C134-9 116 4 85 4 32 4 16-35 15-94c0-59 17-99 70-100 32-1 48 14 60 33 0-11-1-24 2-32h30l-1 268h-32zM93-21c41 0 51-33 51-76s-8-73-50-73c-40 0-46 35-46 75s5 74 45 74" id="aY"/><path fill="#333" d="M84 4C-5 8 30-112 23-190h32v120c0 31 7 50 39 49 72-2 45-101 50-169h31l1 190h-30c-1-10 1-25-2-33-11 22-28 36-60 37" id="aZ"/><g id="G"><use transform="matrix(0.04938271604938272,0,0,0.04938271604938272,0,0)" xlink:href="#az"/><use transform="matrix(0.04938271604938272,0,0,0.04938271604938272,5.8765432098765435,0)" xlink:href="#aN"/><use transform="matrix(0.04938271604938272,0,0,0.04938271604938272,15.753086419753087,0)" xlink:href="#aY"/><use transform="matrix(0.04938271604938272,0,0,0.04938271604938272,25.629629629629633,0)" xlink:href="#aZ"/><use transform="matrix(0.04938271604938272,0,0,0.04938271604938272,35.50617283950618,0)" xlink:href="#aN"/><use transform="matrix(0.04938271604938272,0,0,0.04938271604938272,45.38271604938272,0)" xlink:href="#aC"/><use transform="matrix(0.04938271604938272,0,0,0.04938271604938272,54.27160493827161,0)" xlink:href="#aX"/></g></defs></g></svg>